# xmcd CD database file
#
# Track frame offsets:
#	150
#	27550
#	53352
#	83868
#	118295
#	143669
#	177840
#	200600
#	226813
#	242843
#	272697
#
# Disc length: 4018 seconds
#
# Revision: 0
# Processed by: cddbd v1.5.1PL0 Copyright (c) Steve Scherf et al.
# Submitted via: CDex 1.51
#
DISCID=930fb00b
DTITLE=Adam Rafferty Trio - Three Souls
DYEAR=2001
DGENRE=Jazz
TTITLE0=Amercia
TTITLE1=Crimson
TTITLE2=Object of Desire
TTITLE3=Blues for Wes and George
TTITLE4=Tempest
TTITLE5=Different Bread
TTITLE6=Two Souls
TTITLE7=Blues for my shoes
TTITLE8=Bootieology
TTITLE9=Hurricane Bertha
TTITLE10=Like no place on earth
EXTD=YEAR: 2001
EXTT0=
EXTT1=
EXTT2=
EXTT3=
EXTT4=
EXTT5=
EXTT6=
EXTT7=
EXTT8=
EXTT9=
EXTT10=
PLAYORDER=
